<?xml version="1.0" standalone="no"?>
<!DOCTYPE svg PUBLIC "-//W3C//DTD SVG 20010904//EN"
 "http://www.w3.org/TR/2001/REC-SVG-20010904/DTD/svg10.dtd">
<svg version="1.0" xmlns="http://www.w3.org/2000/svg"
 width="360.000000pt" height="216.000000pt" viewBox="0 0 360.000000 216.000000"
 preserveAspectRatio="xMidYMid meet">

<g transform="translate(0.000000,216.000000) scale(0.100000,-0.100000)"
fill="#000000" stroke="none">
<path d="M2731 1950 c-29 -4 -59 -14 -66 -22 -7 -7 -15 -41 -17 -75 -4 -60 -4
-61 19 -52 60 23 215 20 274 -5 13 -6 15 2 11 56 -2 35 -9 68 -14 75 -8 10
-46 19 -123 28 -16 2 -54 -1 -84 -5z m177 -29 c18 -9 22 -20 22 -57 0 -44 0
-44 -27 -37 -16 5 -67 8 -116 8 -86 0 -87 0 -87 25 0 29 -16 16 -23 -20 -3
-14 -4 -2 -3 25 1 48 3 51 36 63 42 14 165 11 198 -7z"/>
<path d="M2735 1910 c-3 -5 1 -10 9 -10 9 0 16 5 16 10 0 6 -4 10 -9 10 -6 0
-13 -4 -16 -10z"/>
<path d="M2792 1916 c3 -4 28 -10 54 -14 40 -6 49 -11 55 -32 l7 -25 1 27 c1
15 -3 30 -9 33 -14 9 -116 19 -108 11z"/>
<path d="M2683 1788 c-24 -5 -43 -14 -43 -19 0 -6 9 -7 23 -2 12 4 74 8 137 8
63 0 125 -4 138 -8 13 -5 22 -4 22 1 0 27 -188 40 -277 20z"/>
<path d="M2701 1760 c-25 -5 -49 -15 -55 -21 -8 -9 -5 -10 14 -4 49 14 199 18
246 6 53 -13 71 -7 28 9 -40 15 -180 21 -233 10z"/>
<path d="M2726 1729 c-38 -4 -74 -13 -80 -19 -8 -9 0 -10 34 -4 58 11 183 11
239 0 30 -5 41 -5 37 2 -6 10 -45 17 -131 25 -16 2 -61 0 -99 -4z"/>
<path d="M2675 1690 l-30 -9 3 -560 2 -560 69 -163 68 -163 -36 -6 c-35 -6
-35 -6 10 -8 l46 -1 71 173 72 172 2 558 c3 487 1 558 -12 563 -25 11 -233 14
-265 4z m171 -10 c12 0 14 -88 14 -534 l0 -535 -23 -27 c-19 -22 -29 -26 -50
-20 -57 14 -57 16 -57 590 l0 525 23 4 c12 3 35 3 51 1 16 -2 35 -4 42 -4z
m-126 -529 c0 -340 -4 -539 -10 -557 -10 -26 -11 -26 -25 -8 -12 16 -14 104
-15 549 0 293 4 524 9 517 6 -10 10 -9 14 7 3 12 10 21 16 21 8 0 11 -153 11
-529z m194 523 c14 -6 16 -62 16 -538 -1 -449 -3 -534 -15 -550 -8 -11 -18
-16 -22 -12 -12 11 -15 1106 -4 1106 5 0 16 -3 25 -6z m-115 -1124 c12 0 33
11 47 25 14 14 26 25 28 25 2 0 7 -11 10 -25 7 -29 21 -32 35 -7 23 39 8 -9
-36 -115 l-47 -113 -38 0 c-33 0 -39 4 -45 28 -4 15 -6 33 -4 41 1 7 -2 10 -7
7 -7 -4 -33 49 -71 149 -2 5 9 -1 24 -15 16 -14 25 -20 21 -13 -3 7 -4 24 0
38 l7 26 26 -25 c15 -14 37 -26 50 -26z m31 -227 c-1 -5 -7 -19 -15 -33 l-14
-25 -1 33 c0 22 5 32 15 32 8 0 15 -3 15 -7z"/>
<path d="M2842 1520 c0 -14 2 -19 5 -12 2 6 2 18 0 25 -3 6 -5 1 -5 -13z"/>
<path d="M2843 1415 c0 -22 2 -30 4 -17 2 12 2 30 0 40 -3 9 -5 -1 -4 -23z"/>
<path d="M2842 1250 c0 -19 2 -27 5 -17 2 9 2 25 0 35 -3 9 -5 1 -5 -18z"/>
<path d="M2841 1154 c0 -11 3 -14 6 -6 3 7 2 16 -1 19 -3 4 -6 -2 -5 -13z"/>
<path d="M2843 995 c0 -27 2 -38 4 -22 2 15 2 37 0 50 -2 12 -4 0 -4 -28z"/>
<path d="M2841 874 c0 -11 3 -14 6 -6 3 7 2 16 -1 19 -3 4 -6 -2 -5 -13z"/>
<path d="M2842 810 c0 -14 2 -19 5 -12 2 6 2 18 0 25 -3 6 -5 1 -5 -13z"/>
<path d="M2683 1595 c0 -22 2 -30 4 -17 2 12 2 30 0 40 -3 9 -5 -1 -4 -23z"/>
<path d="M2702 1530 c0 -14 2 -19 5 -12 2 6 2 18 0 25 -3 6 -5 1 -5 -13z"/>
<path d="M2683 1415 c0 -22 2 -30 4 -17 2 12 2 30 0 40 -3 9 -5 -1 -4 -23z"/>
<path d="M2702 1350 c0 -19 2 -27 5 -17 2 9 2 25 0 35 -3 9 -5 1 -5 -18z"/>
<path d="M2681 1314 c0 -11 3 -14 6 -6 3 7 2 16 -1 19 -3 4 -6 -2 -5 -13z"/>
<path d="M2683 1245 c0 -22 2 -30 4 -17 2 12 2 30 0 40 -3 9 -5 -1 -4 -23z"/>
<path d="M2701 1204 c0 -11 3 -14 6 -6 3 7 2 16 -1 19 -3 4 -6 -2 -5 -13z"/>
<path d="M2681 1154 c0 -11 3 -14 6 -6 3 7 2 16 -1 19 -3 4 -6 -2 -5 -13z"/>
<path d="M2702 1135 c0 -16 2 -22 5 -12 2 9 2 23 0 30 -3 6 -5 -1 -5 -18z"/>
<path d="M2701 1054 c0 -11 3 -14 6 -6 3 7 2 16 -1 19 -3 4 -6 -2 -5 -13z"/>
<path d="M2683 970 c0 -25 2 -35 4 -22 2 12 2 32 0 45 -2 12 -4 2 -4 -23z"/>
<path d="M2702 920 c0 -19 2 -27 5 -17 2 9 2 25 0 35 -3 9 -5 1 -5 -18z"/>
<path d="M2683 875 c0 -22 2 -30 4 -17 2 12 2 30 0 40 -3 9 -5 -1 -4 -23z"/>
<path d="M2681 774 c0 -11 3 -14 6 -6 3 7 2 16 -1 19 -3 4 -6 -2 -5 -13z"/>
<path d="M2701 744 c0 -11 3 -14 6 -6 3 7 2 16 -1 19 -3 4 -6 -2 -5 -13z"/>
<path d="M2701 684 c0 -11 3 -14 6 -6 3 7 2 16 -1 19 -3 4 -6 -2 -5 -13z"/>
<path d="M2722 479 c6 -16 12 -28 14 -26 5 5 -13 57 -20 57 -3 0 0 -14 6 -31z"/>
<path d="M2752 465 c0 -16 2 -22 5 -12 2 9 2 23 0 30 -3 6 -5 -1 -5 -18z"/>
<path d="M2771 364 c0 -11 3 -14 6 -6 3 7 2 16 -1 19 -3 4 -6 -2 -5 -13z"/>
<path d="M3068 1303 c7 -3 16 -2 19 1 4 3 -2 6 -13 5 -11 0 -14 -3 -6 -6z"/>
<path d="M302 1028 c-9 -9 -12 -75 -12 -234 0 -181 3 -224 15 -234 14 -11 55
-6 55 8 1 4 2 48 3 97 l2 90 77 5 c68 4 80 8 107 34 75 72 58 187 -33 230 -41
20 -195 23 -214 4z m229 -31 c37 -25 56 -76 45 -121 -11 -43 -24 -30 -19 19 5
39 2 47 -25 75 -29 29 -34 30 -116 30 -51 0 -86 4 -86 10 0 6 35 10 84 10 70
0 88 -4 117 -23z m-29 -54 c24 -21 23 -68 -2 -93 -15 -15 -33 -20 -75 -20
l-55 0 0 65 0 65 57 0 c38 0 62 -5 75 -17z m-140 -145 c-9 -9 -15 -9 -24 0 -9
9 -7 12 12 12 19 0 21 -3 12 -12z m113 2 c-3 -5 -22 -10 -41 -10 -19 0 -34 5
-34 10 0 6 18 10 41 10 24 0 38 -4 34 -10z m-125 -120 c0 -53 -4 -90 -10 -90
-6 0 -10 37 -10 90 0 53 4 90 10 90 6 0 10 -37 10 -90z"/>
<path d="M721 1022 c-67 -34 -76 -57 -79 -215 -2 -121 0 -147 15 -176 51 -98
187 -107 243 -17 17 28 20 51 21 179 1 133 -1 150 -20 181 -38 61 -115 82
-180 48z m130 -18 c38 -19 78 -104 49 -104 -5 0 -10 9 -10 21 0 11 -13 34 -29
50 -23 23 -38 29 -71 29 -25 0 -39 4 -35 10 9 15 62 12 96 -6z m-17 -66 c12
-17 16 -50 16 -145 0 -110 -2 -125 -20 -143 -24 -24 -67 -26 -92 -3 -16 14
-18 33 -18 146 0 107 3 134 17 149 23 26 78 24 97 -4z m-134 -93 c0 -19 -4
-35 -10 -35 -5 0 -10 16 -10 35 0 19 5 35 10 35 6 0 10 -16 10 -35z m210 -40
c0 -43 -4 -75 -10 -75 -6 0 -10 32 -10 75 0 43 4 75 10 75 6 0 10 -32 10 -75z
m-210 -108 c0 -12 7 -32 15 -44 9 -13 11 -24 6 -28 -12 -7 -41 46 -41 75 0 11
5 20 10 20 6 0 10 -10 10 -23z m210 4 c0 -19 -12 -41 -20 -36 -10 6 -1 45 11
45 5 0 9 -4 9 -9z m-110 -101 c0 -5 -9 -10 -20 -10 -11 0 -20 5 -20 10 0 6 9
10 20 10 11 0 20 -4 20 -10z"/>
<path d="M1000 1021 c-6 -12 -10 -103 -10 -226 0 -212 5 -245 39 -245 32 0 40
23 43 116 3 87 4 89 28 89 19 0 38 -20 95 -100 75 -106 104 -125 125 -84 11
19 5 31 -46 106 l-58 85 27 20 c85 62 72 193 -23 240 -25 13 -59 18 -122 18
-76 0 -89 -2 -98 -19z m246 -35 c19 -19 35 -45 35 -57 2 -40 -2 -63 -13 -74
-7 -7 -9 1 -5 25 6 42 -14 94 -41 109 -12 6 -57 11 -101 11 -44 0 -83 5 -86
10 -4 6 27 10 85 10 91 0 92 0 126 -34z m-41 -46 c24 -27 22 -70 -5 -92 -15
-12 -39 -18 -76 -18 l-54 0 0 65 0 65 58 0 c46 0 63 -4 77 -20z m-135 -140 c0
-5 -4 -10 -9 -10 -6 0 -13 5 -16 10 -3 6 1 10 9 10 9 0 16 -4 16 -10z m105 0
c-3 -5 -22 -10 -41 -10 -19 0 -34 5 -34 10 0 6 18 10 41 10 24 0 38 -4 34 -10z
m83 -125 c29 -41 52 -77 52 -80 0 -19 -24 5 -66 68 -57 83 -59 87 -47 87 5 0
32 -34 61 -75z"/>
<path d="M1320 1021 c-13 -25 -13 -27 6 -45 10 -11 34 -16 70 -16 l54 0 0
-193 c0 -199 3 -217 42 -217 32 0 38 35 38 224 l0 186 46 0 c54 0 84 14 84 38
0 37 -19 42 -177 42 -140 0 -153 -2 -163 -19z m115 -11 c-3 -5 -17 -10 -31
-10 -13 0 -24 5 -24 10 0 6 14 10 31 10 17 0 28 -4 24 -10z m205 0 c0 -6 -32
-10 -75 -10 -43 0 -75 4 -75 10 0 6 32 10 75 10 43 0 75 -4 75 -10z m-130
-255 c0 -103 -4 -165 -10 -165 -6 0 -10 62 -10 165 0 103 4 165 10 165 6 0 10
-62 10 -165z"/>
<path d="M1711 1026 c-8 -9 -11 -80 -9 -236 3 -200 5 -224 21 -234 12 -8 22
-8 35 0 14 9 17 29 20 123 l3 111 39 0 c53 0 70 8 70 34 0 33 -19 46 -67 46
l-43 0 0 45 0 45 56 0 c67 0 94 13 94 44 0 31 -15 36 -120 36 -62 0 -91 -4
-99 -14z m69 -16 c0 -5 -6 -10 -14 -10 -8 0 -18 5 -21 10 -3 6 3 10 14 10 12
0 21 -4 21 -10z m135 0 c-3 -5 -31 -10 -61 -10 -30 0 -54 5 -54 10 0 6 27 10
61 10 37 0 58 -4 54 -10z m-159 -147 c-10 -10 -19 5 -10 18 6 11 8 11 12 0 2
-7 1 -15 -2 -18z m119 -23 c4 -6 -5 -10 -19 -10 -14 0 -26 5 -26 10 0 6 9 10
19 10 11 0 23 -4 26 -10z m-115 -145 c0 -77 -4 -125 -10 -125 -6 0 -10 48 -10
125 0 77 4 125 10 125 6 0 10 -48 10 -125z"/>
<path d="M2035 1021 c-69 -42 -70 -46 -70 -228 l0 -165 43 -38 c27 -25 38 -40
30 -44 -20 -8 73 5 108 15 17 5 44 23 60 40 l29 30 0 164 c0 160 0 164 -25
190 -50 54 -122 69 -175 36z m148 -31 c19 -17 37 -41 39 -55 8 -39 -9 -39 -22
0 -15 44 -44 65 -93 65 -23 0 -36 4 -32 10 13 22 74 10 108 -20z m-47 -38 c26
-17 34 -56 34 -156 0 -59 -5 -116 -12 -131 -21 -46 -95 -46 -116 0 -7 15 -12
72 -12 131 0 131 14 164 70 164 14 0 30 -4 36 -8z m-116 -181 c0 -63 4 -112
10 -116 6 -3 10 -14 10 -23 -1 -14 -4 -13 -20 7 -17 20 -20 38 -20 132 0 66 4
109 10 109 6 0 10 -43 10 -109z m210 40 c0 -39 -4 -73 -10 -76 -6 -4 -10 22
-10 69 0 44 4 76 10 76 6 0 10 -30 10 -69z m-6 -123 c-8 -27 -12 -33 -19 -27
-7 8 7 49 17 49 5 0 6 -10 2 -22z m-104 -88 c0 -5 -9 -10 -19 -10 -11 0 -23 5
-26 10 -4 6 5 10 19 10 14 0 26 -4 26 -10z"/>
<path d="M2320 1021 c-6 -12 -10 -104 -10 -230 0 -179 2 -212 16 -226 13 -13
35 -15 113 -13 92 3 96 4 99 26 6 40 -14 52 -84 52 l-64 0 0 193 c0 137 -3
196 -12 205 -18 18 -46 14 -58 -7z m50 -127 c0 -81 -4 -123 -10 -119 -6 4 -10
55 -10 119 0 99 4 126 17 126 2 0 3 -57 3 -126z m0 -180 c0 -8 -4 -12 -10 -9
-5 3 -10 10 -10 16 0 5 5 9 10 9 6 0 10 -7 10 -16z m20 -114 c0 -5 -7 -10 -15
-10 -8 0 -15 5 -15 10 0 6 7 10 15 10 8 0 15 -4 15 -10z m140 0 c0 -6 -27 -10
-60 -10 -33 0 -60 4 -60 10 0 6 27 10 60 10 33 0 60 -4 60 -10z"/>
<path d="M3150 1022 c-19 -9 -45 -32 -57 -51 -21 -31 -23 -45 -23 -173 0 -151
7 -179 56 -217 59 -46 141 -35 194 26 l31 35 -3 158 c-3 153 -4 159 -28 185
-52 56 -108 68 -170 37z m145 -34 c34 -32 57 -88 37 -88 -5 0 -13 12 -16 26
-11 44 -50 74 -96 74 -25 0 -39 4 -35 10 3 6 22 10 41 10 25 0 44 -9 69 -32z
m-39 -42 c16 -12 19 -29 22 -126 2 -61 1 -122 -2 -135 -15 -59 -79 -75 -115
-29 -18 23 -21 41 -21 139 0 98 3 116 21 139 23 29 63 35 95 12z m-126 -101
c0 -19 -4 -35 -10 -35 -5 0 -10 16 -10 35 0 19 5 35 10 35 6 0 10 -16 10 -35z
m210 -40 c0 -43 -4 -75 -10 -75 -6 0 -10 32 -10 75 0 43 4 75 10 75 6 0 10
-32 10 -75z m-210 -114 c0 -17 5 -33 10 -36 6 -3 10 -14 10 -23 0 -15 -2 -15
-15 -1 -20 19 -32 89 -16 89 6 0 11 -13 11 -29z m210 10 c0 -19 -12 -41 -20
-36 -10 6 -1 45 11 45 5 0 9 -4 9 -9z m-110 -101 c0 -5 -9 -10 -19 -10 -11 0
-23 5 -26 10 -4 6 5 10 19 10 14 0 26 -4 26 -10z"/>
<path d="M2293 223 c9 -2 25 -2 35 0 9 3 1 5 -18 5 -19 0 -27 -2 -17 -5z"/>
<path d="M2398 223 c17 -2 47 -2 65 0 17 2 3 4 -33 4 -36 0 -50 -2 -32 -4z"/>
<path d="M2563 223 c26 -2 68 -2 95 0 26 2 4 3 -48 3 -52 0 -74 -1 -47 -3z"/>
</g>
</svg>
